<svg id="visual" viewBox="0 0 900 600" width="900" height="600" xmlns="http://www.w3.org/2000/svg" xmlns:xlink="http://www.w3.org/1999/xlink" version="1.1"><path d="M0 67L13.7 76C27.3 85 54.7 103 82 99C109.3 95 136.7 69 163.8 66C191 63 218 83 245.2 87C272.3 91 299.7 79 327 82C354.3 85 381.7 103 409 111C436.3 119 463.7 117 491 107C518.3 97 545.7 79 573 80C600.3 81 627.7 101 654.8 106C682 111 709 101 736.2 94C763.3 87 790.7 83 818 85C845.3 87 872.7 95 886.3 99L900 103L900 0L886.3 0C872.7 0 845.3 0 818 0C790.7 0 763.3 0 736.2 0C709 0 682 0 654.8 0C627.7 0 600.3 0 573 0C545.7 0 518.3 0 491 0C463.7 0 436.3 0 409 0C381.7 0 354.3 0 327 0C299.7 0 272.3 0 245.2 0C218 0 191 0 163.8 0C136.7 0 109.3 0 82 0C54.7 0 27.3 0 13.7 0L0 0Z" fill="#ffffff"></path><path d="M0 133L13.7 140C27.3 147 54.7 161 82 160C109.3 159 136.7 143 163.8 142C191 141 218 155 245.2 158C272.3 161 299.7 153 327 156C354.3 159 381.7 173 409 183C436.3 193 463.7 199 491 190C518.3 181 545.7 157 573 156C600.3 155 627.7 177 654.8 181C682 185 709 171 736.2 160C763.3 149 790.7 141 818 147C845.3 153 872.7 173 886.3 183L900 193L900 101L886.3 97C872.7 93 845.3 85 818 83C790.7 81 763.3 85 736.2 92C709 99 682 109 654.8 104C627.7 99 600.3 79 573 78C545.7 77 518.3 95 491 105C463.7 115 436.3 117 409 109C381.7 101 354.3 83 327 80C299.7 77 272.3 89 245.2 85C218 81 191 61 163.8 64C136.7 67 109.3 93 82 97C54.7 101 27.3 83 13.7 74L0 65Z" fill="#d2daeb"></path><path d="M0 301L13.7 292C27.3 283 54.7 265 82 245C109.3 225 136.7 203 163.8 200C191 197 218 213 245.2 222C272.3 231 299.7 233 327 244C354.3 255 381.7 275 409 293C436.3 311 463.7 327 491 309C518.3 291 545.7 239 573 236C600.3 233 627.7 279 654.8 288C682 297 709 269 736.2 253C763.3 237 790.7 233 818 246C845.3 259 872.7 289 886.3 304L900 319L900 191L886.3 181C872.7 171 845.3 151 818 145C790.7 139 763.3 147 736.2 158C709 169 682 183 654.8 179C627.7 175 600.3 153 573 154C545.7 155 518.3 179 491 188C463.7 197 436.3 191 409 181C381.7 171 354.3 157 327 154C299.7 151 272.3 159 245.2 156C218 153 191 139 163.8 140C136.7 141 109.3 157 82 158C54.7 159 27.3 145 13.7 138L0 131Z" fill="#a4b6d7"></path><path d="M0 391L13.7 403C27.3 415 54.7 439 82 421C109.3 403 136.7 343 163.8 331C191 319 218 355 245.2 385C272.3 415 299.7 439 327 438C354.3 437 381.7 411 409 420C436.3 429 463.7 473 491 458C518.3 443 545.7 369 573 370C600.3 371 627.7 447 654.8 472C682 497 709 471 736.2 459C763.3 447 790.7 449 818 452C845.3 455 872.7 459 886.3 461L900 463L900 317L886.3 302C872.7 287 845.3 257 818 244C790.7 231 763.3 235 736.2 251C709 267 682 295 654.8 286C627.7 277 600.3 231 573 234C545.7 237 518.3 289 491 307C463.7 325 436.3 309 409 291C381.7 273 354.3 253 327 242C299.7 231 272.3 229 245.2 220C218 211 191 195 163.8 198C136.7 201 109.3 223 82 243C54.7 263 27.3 281 13.7 290L0 299Z" fill="#7593c3"></path><path d="M0 601L13.7 601C27.3 601 54.7 601 82 601C109.3 601 136.7 601 163.8 601C191 601 218 601 245.2 601C272.3 601 299.7 601 327 601C354.3 601 381.7 601 409 601C436.3 601 463.7 601 491 601C518.3 601 545.7 601 573 601C600.3 601 627.7 601 654.8 601C682 601 709 601 736.2 601C763.3 601 790.7 601 818 601C845.3 601 872.7 601 886.3 601L900 601L900 461L886.3 459C872.7 457 845.3 453 818 450C790.7 447 763.3 445 736.2 457C709 469 682 495 654.8 470C627.7 445 600.3 369 573 368C545.7 367 518.3 441 491 456C463.7 471 436.3 427 409 418C381.7 409 354.3 435 327 436C299.7 437 272.3 413 245.2 383C218 353 191 317 163.8 329C136.7 341 109.3 401 82 419C54.7 437 27.3 413 13.7 401L0 389Z" fill="#3f72af"></path></svg>